<?xml version="1.0" standalone="no"?>
<!DOCTYPE svg PUBLIC "-//W3C//DTD SVG 20010904//EN"
 "http://www.w3.org/TR/2001/REC-SVG-20010904/DTD/svg10.dtd">
<svg version="1.0" xmlns="http://www.w3.org/2000/svg"
 width="1024.000000pt" height="1024.000000pt" viewBox="0 0 1024.000000 1024.000000"
 preserveAspectRatio="xMidYMid meet">
<metadata>
Created by potrace 1.14, written by Peter Selinger 2001-2017
</metadata>
<g transform="translate(0.000000,1024.000000) scale(0.100000,-0.100000)"
fill="#000000" stroke="none">
<path d="M5194 10011 c-45 -5 -86 -11 -92 -15 -6 -3 -53 -15 -104 -26 -286
-62 -554 -185 -753 -347 -44 -36 -84 -72 -88 -81 -5 -10 -25 -30 -45 -45 -34
-26 -242 -292 -242 -310 0 -5 -12 -24 -26 -42 -14 -19 -35 -52 -47 -73 -52
-94 -87 -141 -165 -223 -69 -72 -92 -89 -130 -99 -142 -39 -265 -149 -341
-305 l-29 -60 -37 80 c-20 44 -75 158 -122 253 l-84 172 15 48 c29 87 55 299
47 382 -8 72 -23 120 -39 120 -22 0 -52 -36 -76 -90 -27 -59 -76 -235 -76
-271 0 -22 -3 -23 -45 -7 l-32 11 -6 136 c-12 260 -76 425 -131 339 -33 -53
-52 -265 -37 -403 l11 -90 -43 -37 c-23 -20 -45 -37 -48 -38 -4 0 -12 21 -19
48 -19 69 -84 218 -115 263 -33 47 -63 59 -82 33 -36 -49 5 -307 78 -490 l20
-52 -27 -53 c-63 -124 -149 -383 -188 -564 -47 -213 -70 -447 -64 -638 l3
-134 -62 -33 c-75 -38 -113 -67 -113 -84 0 -26 48 -129 64 -138 10 -6 38 -4
78 7 33 8 63 13 65 11 2 -2 10 -27 18 -55 13 -50 13 -51 -17 -88 -17 -21 -37
-53 -45 -71 -14 -33 -14 -33 43 -98 50 -57 61 -64 84 -59 26 6 30 1 80 -97 29
-57 81 -148 115 -203 70 -112 105 -178 105 -197 0 -7 -28 -62 -61 -123 -150
-270 -217 -411 -280 -595 -25 -74 -63 -180 -83 -234 -72 -196 -157 -508 -170
-626 -30 -269 -35 -588 -12 -776 11 -93 28 -162 75 -311 34 -104 67 -197 74
-205 21 -27 70 -37 122 -25 43 10 49 15 66 55 11 25 33 60 48 78 16 18 33 43
37 56 7 22 7 22 14 2 5 -11 11 -47 15 -80 8 -60 56 -172 78 -179 7 -2 37 -6
67 -8 l54 -4 76 78 c68 71 97 107 202 248 51 69 99 146 162 266 32 61 62 112
65 115 3 3 21 37 40 75 18 39 45 88 60 110 15 22 67 125 116 228 48 103 91
190 94 191 3 2 67 -54 141 -124 l135 -128 3 -108 c7 -201 -47 -492 -114 -611
-121 -217 -254 -328 -440 -368 -102 -22 -311 -30 -434 -16 -58 6 -188 27 -290
46 -102 19 -306 53 -455 76 -294 44 -473 53 -645 29 -135 -18 -346 -77 -449
-126 l-94 -44 -52 38 c-30 20 -134 103 -232 183 -183 150 -365 289 -376 289
-4 0 -6 -262 -5 -582 l3 -583 68 -25 69 -25 -6 -40 c-40 -261 -49 -610 -21
-815 17 -117 56 -288 99 -427 13 -43 27 -103 31 -133 4 -30 20 -120 36 -200
67 -327 69 -365 27 -442 -19 -33 -28 -38 -87 -52 -36 -8 -86 -17 -111 -21 -25
-3 -60 -10 -77 -16 l-33 -11 0 -199 0 -199 759 0 759 0 112 118 c166 173 273
327 412 592 18 36 38 64 43 63 56 -9 309 -38 462 -52 106 -9 195 -20 197 -22
3 -3 -1 -27 -10 -54 -8 -28 -21 -129 -29 -225 -8 -96 -24 -227 -35 -290 -11
-63 -20 -118 -20 -122 0 -5 340 -8 755 -8 l755 0 0 74 c0 108 37 307 76 413
44 117 106 225 223 386 74 102 100 130 134 146 l42 19 27 -31 27 -30 41 18
c51 23 166 143 209 218 41 73 66 76 128 15 40 -40 44 -41 80 -32 35 8 40 14
58 66 11 32 23 58 27 58 4 0 27 -13 51 -30 25 -16 49 -30 54 -30 13 0 32 43
38 88 8 55 -11 237 -33 318 -20 70 -20 72 -1 129 10 32 19 70 19 84 0 19 9 30
32 42 53 26 55 38 18 130 -35 88 -148 268 -209 332 l-35 37 28 253 c15 138 29
260 32 269 3 9 21 22 41 29 38 12 145 79 316 196 132 91 326 269 443 406 49
58 94 108 101 111 6 3 27 -21 46 -53 l34 -58 -16 -66 c-10 -36 -25 -75 -35
-86 -18 -20 -28 -37 -84 -141 -18 -33 -40 -64 -48 -67 -8 -3 -37 -50 -64 -104
-29 -58 -57 -100 -68 -103 -11 -4 -31 -29 -46 -57 -15 -27 -37 -55 -47 -62
-11 -7 -34 -34 -51 -61 -16 -28 -41 -58 -53 -68 -24 -19 -55 -95 -55 -135 0
-48 117 -43 166 8 16 17 47 40 69 51 187 96 546 408 727 633 45 55 78 91 75
80 -4 -11 -20 -67 -37 -125 -38 -134 -95 -291 -205 -560 -104 -256 -182 -451
-201 -503 -8 -21 -21 -48 -28 -60 -8 -12 -29 -65 -47 -117 -18 -52 -42 -106
-54 -120 -13 -14 -35 -63 -50 -110 -15 -47 -37 -101 -48 -120 -12 -19 -20 -45
-18 -58 1 -13 -2 -28 -7 -35 -14 -17 -18 -49 -9 -64 5 -8 29 -13 56 -13 61 0
210 74 261 130 19 21 49 46 65 57 41 24 96 76 303 283 96 96 187 193 201 215
14 22 48 67 74 100 27 33 60 80 74 105 15 25 34 54 44 65 10 11 41 61 69 110
l51 90 -6 -54 c-16 -138 -188 -758 -256 -921 -10 -25 -36 -109 -58 -187 -22
-79 -46 -153 -52 -165 -7 -13 -16 -39 -20 -58 -4 -19 -12 -48 -18 -65 -34 -94
-161 -486 -161 -497 0 -8 -9 -31 -20 -53 -37 -73 -67 -280 -45 -315 14 -22 76
-7 198 46 70 31 132 65 138 75 5 10 31 33 57 50 26 18 67 51 92 75 25 23 88
81 141 128 118 106 384 391 423 455 16 25 50 73 76 106 25 33 57 78 70 100 13
22 32 51 43 65 25 33 117 198 187 335 30 61 61 119 67 130 26 43 145 302 177
383 19 48 46 110 59 137 14 28 37 91 53 140 15 50 41 126 59 170 17 44 44 139
59 210 16 72 43 200 62 285 18 85 39 196 45 247 13 94 22 109 32 51 20 -112
121 -553 150 -658 20 -69 61 -224 92 -345 91 -358 93 -365 122 -399 16 -17 46
-73 68 -124 27 -61 45 -92 56 -92 11 0 27 27 49 87 19 49 46 102 60 119 20 23
30 50 39 110 7 43 25 133 41 200 40 163 57 254 65 349 3 44 13 151 21 237 34
367 -23 1163 -115 1593 -82 386 -257 1024 -323 1177 -11 26 -18 52 -16 58 2 7
35 -5 86 -31 49 -25 86 -38 91 -33 5 5 19 43 31 84 12 41 30 103 41 138 42
143 33 414 -22 642 -48 203 -272 701 -417 925 -54 85 -171 241 -232 312 -144
166 -135 152 -117 181 26 43 103 58 195 38 40 -9 116 -16 170 -16 82 0 103 4
137 23 44 25 58 64 31 87 -9 7 -16 23 -16 35 0 20 -49 118 -129 257 -15 27
-38 60 -52 75 -14 16 -37 44 -51 63 -14 19 -41 51 -60 70 -19 19 -39 42 -44
51 -18 30 -235 196 -379 290 -245 160 -410 226 -745 298 -262 56 -346 66 -600
65 -211 0 -247 -3 -355 -25 l-119 -25 -117 27 c-156 36 -313 58 -494 70 -103
7 -154 14 -164 24 -12 12 -10 15 14 21 32 8 227 0 450 -19 89 -8 173 -11 190
-6 16 4 49 13 72 19 73 19 81 71 17 109 -27 16 -34 26 -29 41 5 15 -6 27 -59
60 -36 23 -75 53 -86 67 -20 26 -95 74 -190 122 -62 32 -160 64 -265 86 -38 8
-88 19 -110 25 -56 14 -264 20 -361 11z m-928 -3122 c296 -52 518 -218 654
-489 18 -36 36 -67 40 -70 4 -3 19 -54 34 -115 84 -350 97 -660 31 -803 -43
-93 -88 -130 -215 -174 -61 -21 -221 -48 -288 -48 l-43 0 73 73 c168 166 258
364 295 646 13 106 14 143 4 233 -24 226 -103 408 -231 538 -211 214 -476 240
-679 67 -106 -91 -186 -221 -239 -387 -44 -137 -56 -233 -56 -425 -1 -143 3
-187 23 -275 23 -104 67 -228 100 -285 35 -61 35 -67 -5 -62 -38 5 -49 12 -49
30 0 6 -34 31 -76 56 -96 58 -134 91 -183 155 -78 104 -107 204 -111 391 -1
77 2 116 11 130 7 11 18 49 23 85 13 81 14 93 1 85 -15 -9 -12 23 9 90 12 37
20 51 20 36 1 -25 1 -25 20 -5 10 11 22 31 26 45 4 13 22 42 40 64 17 22 52
72 77 110 44 68 89 125 116 149 7 6 22 19 34 29 11 10 34 23 51 29 18 6 43 20
56 30 22 17 154 61 211 71 50 9 168 7 226 -4z m2299 -215 c27 -29 76 -171 99
-286 27 -137 39 -332 32 -543 -10 -305 -48 -641 -81 -721 -19 -46 -69 -77
-131 -82 -44 -4 -61 0 -99 23 l-46 26 21 32 c60 89 107 232 140 419 17 96 23
178 27 368 6 281 -6 387 -58 546 l-32 96 17 53 c15 49 53 95 78 95 5 0 20 -12
33 -26z m-1988 -115 c102 -49 174 -202 174 -367 0 -107 -23 -177 -76 -229 -36
-37 -48 -43 -84 -43 -52 0 -89 18 -130 65 -46 53 -81 128 -97 212 -17 90 -17
126 -3 210 13 72 39 117 88 150 42 29 72 29 128 2z m-178 -635 c25 -32 28 -92
6 -133 -32 -62 -98 -52 -120 17 -11 37 4 92 32 118 33 31 57 30 82 -2z m1901
-106 c0 -53 -14 -98 -31 -98 -12 0 -7 88 7 146 10 38 24 10 24 -48z m-948
-1229 c22 -27 47 -49 55 -49 28 0 73 -31 89 -61 10 -19 33 -39 62 -52 l47 -22
-62 -3 c-45 -2 -63 -7 -67 -19 -4 -9 -3 -20 2 -25 9 -9 324 -30 475 -32 51 -1
87 -5 87 -11 0 -42 -25 -88 -58 -110 -33 -21 -56 -25 -237 -38 -193 -14 -201
-14 -238 5 -52 26 -110 80 -146 137 -37 58 -38 61 -6 61 16 0 25 6 25 15 0 10
-10 15 -34 15 -33 0 -35 2 -54 63 -24 72 -42 157 -42 193 l0 25 30 -21 c16
-12 49 -43 72 -71z m835 -185 c-6 -60 -73 -212 -87 -197 -4 4 -10 46 -14 93
l-6 85 48 37 c26 20 51 37 56 37 5 1 6 -24 3 -55z m-899 -799 c-6 -14 -13 -23
-15 -21 -5 5 15 46 22 46 3 0 -1 -11 -7 -25z"/>
<path d="M5440 4315 c-6 -8 -10 -22 -8 -32 3 -13 7 -9 15 15 13 35 12 39 -7
17z"/>
</g>
</svg>
