<svg xmlns="http://www.w3.org/2000/svg" viewBox="0 0 1024 1024">
  <linearGradient id="blob_1_" x1="193" x2="829.1" y1="838.5" y2="202.3" gradientUnits="userSpaceOnUse">
    <stop offset="0" stop-color="#f64"/>
    <stop offset="1" stop-color="#fa2"/>
  </linearGradient>
  <path id="blob" fill="url(#blob_1_)" d="M809 744c-1 65-38 95-110 89s-145 14-219 55-147 43-219 3c-72-39-108-95-108-167 0-73 20-133 59-180s47-117 22-208 7-141 96-152 180-25 271-47 166 0 226 63c59 63 94 129 105 198s-7 128-53 177c-46 48-70 105-70 169z"/>
  <linearGradient id="a" x1="508.6" x2="962.8" y1="180.7" y2="473.9" gradientTransform="scale(1 -1) rotate(12 5098 -712)" gradientUnits="userSpaceOnUse">
    <stop offset="0" stop-color="#666"/>
    <stop offset="1" stop-color="#999"/>
  </linearGradient>
  <path fill="url(#a)" d="M804 444c-35-59-77-106-126-138-43-29-84-40-111-45-29-5-47-3-48-3-4 1-7 4-6 8l1 4c82 94 97 177 95 229-2 50-18 83-23 91-20 10-175 92-200 154a7 7 0 008 10c14-2 27-5 40-9-1 11-4 30-12 53a7 7 0 008 10c20-4 37-25 47-41 2 14 2 29 2 43 0 4 3 8 7 8l3-1c24-10 34-29 38-44 16 26 45 80 38 127-1 4 2 8 6 8 2 1 5 0 6-1 37-35 55-75 62-94 16 17 49 62 59 157 0 2 2 5 5 6s6 0 8-3a336 336 0 0076-281c-7-38-18-74-34-108 39 29 115 91 130 146 1 3 5 6 8 5 4-1 7-5 6-8a843 843 0 00-93-283z"/>
  <linearGradient id="b" x1="204.7" x2="408.8" y1="851.2" y2="647.1" gradientUnits="userSpaceOnUse">
    <stop offset="0" stop-color="#ccc"/>
    <stop offset="1" stop-color="#e6e6e6"/>
  </linearGradient>
  <path fill="url(#b)" d="M430 679L234 554v-1h-1l-9 3a517 517 0 013 221c-13 26-20 52-22 75 15 15 34 28 56 40 51 29 103 36 155 23l5-7c30-48 30-191 19-229h-10z"/>
  <linearGradient id="c" x1="79.7" x2="380.5" y1="498.5" y2="692.6" gradientUnits="userSpaceOnUse">
    <stop offset="0" stop-color="#666"/>
    <stop offset="1" stop-color="#999"/>
  </linearGradient>
  <path fill="url(#c)" d="M336 676c-68-22-112-152-113-184-4-35 2-58 2-58 0-2 0-5-2-7l-50-59c-3-2-8-1-10 2-31 38-76 186-60 257-2 17 43 137 56 99 0-20 2-40 7-59 9 37 31 102 67 120 6 4 13-3 10-9-12-25-15-66-16-95 22 41 68 81 107 76 7 0 9-10 3-13-33-20-45-37-55-58a67 67 0 0054 2c7-2 6-12 0-14z"/>
  <path fill="#e6e6e6" d="M200 476a221 221 0 00198 203c14 4 31 5 48 4 98-2 172-28 216-81 40-43 48-88 22-99-9-5-29-3-45-14a221 221 0 00-373-187"/>
  <linearGradient id="d" x1="560.2" x2="900.2" y1="549" y2="768.4" gradientTransform="scale(1 -1) rotate(12 5098 -712)" gradientUnits="userSpaceOnUse">
    <stop offset="0" stop-color="#666"/>
    <stop offset="1" stop-color="#999"/>
  </linearGradient>
  <path fill="url(#d)" d="M845 376a370 370 0 00-228-194c41 3 84 9 98 14 3 2 7 0 9-4-48-66-164-96-242-95 10-8 24-18 38-20 7-1 7-13-1-14-52-5-99 0-141 18-59 15-155 133-137 171 5 11 12 40 22 49 30-13 138 14 181 30 3 2 7 0 9-4-10-39-48-61-68-70 149-7 281 20 455 129 4-1 6-6 5-10z"/>
  <path fill="#e6e6e6" d="M267 301c-11-42-39-96-85-88-68 25-64 151-43 195 11 29 34 54 62 69"/>
  <path fill="white" d="M530 445c32 60 20 121-26 137s-110-20-142-80-20-121 26-136 110 19 142 79z"/>
  <linearGradient id="e" x1="591.2" x2="673.5" y1="453.8" y2="536.2" gradientTransform="matrix(1 0 0 -1 -134 980)" gradientUnits="userSpaceOnUse">
    <stop offset="0" stop-color="#f64"/>
    <stop offset="1" stop-color="#fa2"/>
  </linearGradient>
  <path fill="url(#e)" d="M536 556c17-27 16-69-6-111-10-18-22-34-37-48l-7 1c-30 7-46 49-36 94s42 78 71 71c6-1 11-3 15-7z"/>
  <path d="M516 546c20 0 31-38 27-67-3-12-8-23-13-34l-4-7c-10-11-23-18-35-15-21 5-15 31-15 64s18 59 40 59z"/>
  <path fill="white" d="M516 487c-2 6-8 11-13 10-5-2-6-9-4-15 3-6 9-11 14-10s6 9 3 15zM500 459c-7 20-24 34-37 30-12-4-15-23-8-43 8-21 25-34 38-30 12 3 15 23 7 43z"/>
  <path fill="#1f2937" d="M771 433l-55 72c-3 3 0 8 4 8l91-8c4-1 6-6 2-9l-12-11c-3-2-2-6 1-8l22-12c2-1 3-4 2-6l-8-14c-1-3-4-3-6-2l-22 12c-3 2-7 0-8-4l-2-16c0-4-6-5-9-2z"/>
</svg>
