<svg xmlns="http://www.w3.org/2000/svg" xmlns:xlink="http://www.w3.org/1999/xlink" viewBox="0 0 945 671">
  <defs>
    <linearGradient id="a" x1="220.1" x2="686.5" y1="693.9" y2="227.5" gradientUnits="userSpaceOnUse">
      <stop offset="0" stop-color="#1f2937"/>
      <stop offset="1" stop-color="#6b7280"/>
    </linearGradient>
    <linearGradient id="c" x1="828.7" x2="947.7" y1="355" y2="236" xlink:href="#a"/>
    <linearGradient id="b" x1="92" x2="154" y1="200.5" y2="138.5" gradientUnits="userSpaceOnUse">
      <stop offset="0" stop-color="#f64"/>
      <stop offset="1" stop-color="#fa2"/>
    </linearGradient>
    <linearGradient id="d" x1="92" x2="154" y1="355.5" y2="293.5" xlink:href="#b"/>
    <linearGradient id="e" x1="92" x2="154" y1="464.5" y2="402.5" xlink:href="#b"/>
  </defs>
  <path fill="url(#a)" d="M662 718q-59 74-174 106t-199-62q-85-96-182-188T75 383q65-98 155-134t188-73q98-36 215 16t62 166q-55 116-14 201t-19 159z" transform="translate(-49 -161)"/>
  <path fill="url(#c)" d="M827 217q43-34 83-10t72 68q31 44-15 82t-99 20q-53-17-69-71t28-89z" transform="translate(-49 -161)"/>
  <path fill="#1f2937" d="M854 93H88a34 34 0 00-34 35v370a34 34 0 0034 35v110h1l110-110h655a34 34 0 0034-35V128a34 34 0 00-34-35z"/>
  <rect width="74" height="74" x="86" y="133" fill="url(#b)" rx="20.4"/>
  <path fill="none" stroke="#6b7280" stroke-linecap="round" stroke-linejoin="round" stroke-width="20" d="M196 150h252"/>
  <path fill="none" stroke="#6b7280" stroke-linecap="round" stroke-linejoin="round" stroke-width="12" d="M196 196h201M425 196h432M86 242h435M547 242h142"/>
  <rect width="74" height="74" x="86" y="288" fill="url(#d)" rx="20.4"/>
  <path fill="none" stroke="#6b7280" stroke-linecap="round" stroke-linejoin="round" stroke-width="20" d="M196 305h154M386 305h111"/>
  <path fill="none" stroke="#6b7280" stroke-linecap="round" stroke-linejoin="round" stroke-width="12" d="M196 351h136M362 351h306"/>
  <rect width="74" height="74" x="86" y="397" fill="url(#e)" rx="20.4"/>
  <path fill="none" stroke="#6b7280" stroke-linecap="round" stroke-linejoin="round" stroke-width="20" d="M196 414h87"/>
  <path fill="none" stroke="#6b7280" stroke-linecap="round" stroke-linejoin="round" stroke-width="12" d="M196 468h351"/>
  <path fill="none" stroke="#6b7280" stroke-linecap="round" stroke-linejoin="round" stroke-width="20" d="M322 414h209"/>
  <path fill="none" stroke="#6b7280" stroke-linecap="round" stroke-linejoin="round" stroke-width="12" d="M581 468h181"/>
</svg>
