<svg xmlns="http://www.w3.org/2000/svg" xmlns:xlink="http://www.w3.org/1999/xlink" viewBox="0 0 889 619">
  <defs>
    <linearGradient id="a" x1="338.1" x2="731.5" y1="706.9" y2="313.4" gradientUnits="userSpaceOnUse">
      <stop offset="0" stop-color="#1f2937"/>
      <stop offset="1" stop-color="#6b7280"/>
    </linearGradient>
    <linearGradient id="b" x1="50.1" x2="201.8" y1="373.3" y2="221.6" gradientUnits="userSpaceOnUse">
      <stop offset="0" stop-color="#f64"/>
      <stop offset="1" stop-color="#fa2"/>
    </linearGradient>
    <linearGradient id="d" x1="284.1" x2="435.8" y1="373.3" y2="221.6" xlink:href="#a"/>
    <linearGradient id="e" x1="515.1" x2="666.8" y1="373.3" y2="221.6" xlink:href="#a"/>
    <linearGradient id="f" x1="809.8" x2="947.9" y1="562" y2="424" xlink:href="#a"/>
    <linearGradient id="g" x1="97.2" x2="153.7" y1="325.7" y2="269.2" xlink:href="#a"/>
    <linearGradient id="h" x1="699.5" x2="742.5" y1="735" y2="692" xlink:href="#b"/>
    <linearGradient id="i" x1="570.1" x2="593.6" y1="329.8" y2="306.2" xlink:href="#b"/>
    <linearGradient id="j" x1="416.1" x2="439.6" y1="329.8" y2="306.2" gradientTransform="matrix(-1 0 0 1 870 0)" xlink:href="#b"/>
    <linearGradient id="k" x1="426.4" x2="462.5" y1="140.5" y2="104.4" xlink:href="#b"/>
    <pattern id="c" width="52" height="52" patternUnits="userSpaceOnUse">
      <path fill="none" d="M0 0h52v52H0z"/>
      <path fill="none" stroke="#fff" stroke-miterlimit="10" stroke-width="18" d="M42 114l72-72M-10 114l72-72M-62 114l72-72M42 62l72-72M-10 62l72-72M-62 62l72-72M42 10l72-72M-10 10l72-72M-62 10l72-72"/>
    </pattern>
  </defs>
  <path fill="url(#a)" d="M291 639q-106-44-95-160t132-120q121-4 192-108t133-11q62 93 110 174t33 196q-15 113-124 156t-192-20q-83-63-189-107z" transform="translate(-68 -196)"/>
  <rect width="888.9" height="191" y="190" fill="#1f2937" rx="25.1"/>
  <path fill="url(#c)" d="M957 411a25 25 0 00-25-25H93a25 25 0 00-25 25z" transform="translate(-68 -196)"/>
  <rect width="201" height="120" x="25" y="238" fill="url(#b)" rx="15.1"/>
  <rect width="201" height="120" x="259" y="238" fill="url(#d)" rx="15.1"/>
  <rect width="201" height="120" x="490" y="238" fill="url(#e)" rx="15.1"/>
  <path fill="url(#f)" d="M807 433a15 15 0 00-15 15v90a15 15 0 0015 15h150V433z" transform="translate(-68 -196)"/>
  <rect width="80" height="80" x="86" y="258" fill="url(#g)" rx="40"/>
  <path fill="#1f2937" d="M618 417h65a33 33 0 0123 10l25 25a33 33 0 0110 23v111a33 33 0 01-33 32h-90a33 33 0 01-32-32V450a33 33 0 0132-33z"/>
  <path fill="url(#h)" d="M708 687v53c0 8 12 13 19 7l30-27a9 9 0 000-13l-30-27c-7-6-19-1-19 7z" transform="translate(-68 -196)"/>
  <path fill="url(#i)" d="M575 304v28c0 5 6 7 10 4l17-14a5 5 0 000-8l-17-14c-4-3-10-1-10 4z" transform="translate(-68 -196)"/>
  <path fill="url(#j)" d="M449 304v28c0 5-6 7-10 4l-17-14a5 5 0 010-8l17-14c4-3 10-1 10 4z" transform="translate(-68 -196)"/>
  <circle cx="444.4" cy="122.5" r="46.1" fill="#1f2937"/>
  <rect width="42" height="42" x="423" y="102" fill="url(#k)" rx="10.1"/>
</svg>
