<svg xmlns="http://www.w3.org/2000/svg" xmlns:xlink="http://www.w3.org/1999/xlink" viewBox="0 0 868 755">
  <defs>
    <linearGradient id="a" x1="209.8" x2="722.9" y1="811.3" y2="298.3" gradientTransform="rotate(-7 421 529)" gradientUnits="userSpaceOnUse">
      <stop offset="0" stop-color="#1f2937"/>
      <stop offset="1" stop-color="#6b7280"/>
    </linearGradient>
    <linearGradient id="c" x1="-56.5" x2="219.6" y1="515.4" y2="239.3" xlink:href="#a"/>
    <linearGradient id="b" x1="118.1" x2="158.5" y1="316.4" y2="276" gradientUnits="userSpaceOnUse">
      <stop offset="0" stop-color="#f64"/>
      <stop offset="1" stop-color="#fa2"/>
    </linearGradient>
    <linearGradient id="d" x1="198.7" x2="282.8" y1="342.9" y2="258.8" gradientTransform="translate(19)" xlink:href="#b"/>
    <linearGradient id="e" x1="181.8" x2="204.9" y1="307.1" y2="284" xlink:href="#b"/>
    <linearGradient id="f" x1="200.8" x2="223.2" y1="306.3" y2="283.9" xlink:href="#b"/>
    <linearGradient id="g" x1="222" x2="244.3" y1="306.3" y2="283.9" xlink:href="#b"/>
    <linearGradient id="h" x1="243.2" x2="265.5" y1="306.3" y2="283.9" xlink:href="#b"/>
    <linearGradient id="i" x1="267" x2="270.8" y1="309.1" y2="305.3" xlink:href="#b"/>
    <linearGradient id="j" x1="277.4" x2="292.2" y1="307" y2="292.3" xlink:href="#b"/>
    <linearGradient id="k" x1="299" x2="313.7" y1="307" y2="292.3" xlink:href="#b"/>
    <linearGradient id="l" x1="320.5" x2="335.3" y1="307" y2="292.3" xlink:href="#b"/>
  </defs>
  <path fill="url(#a)" d="M221 797C77 756 6 555 94 432q65-97 144-172c86-80 320-213 373-21 43 181 212 233 188 425-7 167-212 277-357 213q-112-44-221-80z" transform="translate(-55 -140)"/>
  <rect width="821.1" height="517.1" x="47" y="119" fill="#1f2937" rx="30.8"/>
  <rect width="70.1" height="517.1" x="47" y="119" fill="url(#c)" rx="30"/>
  <path fill="url(#b)" d="M152 279a9 9 0 00-2-3l-2 1a6 6 0 010 7c-6-5-16-4-21 1-6 5-6 13-12 18-9 8 6 16 14 15 15 0 32-17 22-32a11 11 0 001-4c4 3 8 3 11-2-4-4-7-4-11-1z" transform="translate(-55 -140)"/>
  <path fill="url(#d)" d="M186 311l12-31h3l-12 31zM219 296h-11v10h12v3h-16v-29h16v4h-12v9h11zM240 296h-11v10h12v3h-16v-29h16v4h-12v9h11zM261 296h-11v10h13v3h-17v-29h16v4h-12v9h11zM266 307a3 3 0 113 3 3 3 0 01-3-3zM278 300c0 5 4 7 7 7a14 14 0 006-1l1 3a17 17 0 01-7 1c-7 0-10-4-10-11s3-11 9-11c7 0 9 6 9 10a15 15 0 010 2zm11-3c0-2-1-6-5-6s-5 3-6 6zM300 300c0 5 3 7 7 7a14 14 0 006-1v3a17 17 0 01-7 1c-6 0-10-4-10-11s4-11 10-11c7 0 9 6 9 10a15 15 0 01-1 2zm11-3c0-2-1-6-5-6s-6 3-6 6zM321 300c0 5 4 7 7 7a14 14 0 006-1l1 3a17 17 0 01-7 1c-6 0-10-4-10-11s3-11 9-11c7 0 9 6 9 10a15 15 0 010 2zm11-3c0-2-1-6-5-6s-5 3-6 6z" transform="translate(-55 -140)"/>
  <path fill="url(#e)" d="M186 311l12-31h3l-12 31z" transform="translate(-55 -140)"/>
  <path fill="url(#f)" d="M219 296h-11v10h12v3h-16v-29h16v4h-12v9h11z" transform="translate(-55 -140)"/>
  <path fill="url(#g)" d="M240 296h-11v10h12v3h-16v-29h16v4h-12v9h11z" transform="translate(-55 -140)"/>
  <path fill="url(#h)" d="M261 296h-11v10h13v3h-17v-29h16v4h-12v9h11z" transform="translate(-55 -140)"/>
  <path fill="url(#i)" d="M266 307a3 3 0 113 3 3 3 0 01-3-3z" transform="translate(-55 -140)"/>
  <path fill="url(#j)" d="M278 300c0 5 4 7 7 7a14 14 0 006-1l1 3a17 17 0 01-7 1c-7 0-10-4-10-11s3-11 9-11c7 0 9 6 9 10a15 15 0 010 2zm11-3c0-2-1-6-5-6s-5 3-6 6z" transform="translate(-55 -140)"/>
  <path fill="url(#k)" d="M300 300c0 5 3 7 7 7a14 14 0 006-1v3a17 17 0 01-7 1c-6 0-10-4-10-11s4-11 10-11c7 0 9 6 9 10a15 15 0 01-1 2zm11-3c0-2-1-6-5-6s-6 3-6 6z" transform="translate(-55 -140)"/>
  <path fill="url(#l)" d="M321 300c0 5 4 7 7 7a14 14 0 006-1l1 3a17 17 0 01-7 1c-6 0-10-4-10-11s3-11 9-11c7 0 9 6 9 10a15 15 0 010 2zm11-3c0-2-1-6-5-6s-5 3-6 6z" transform="translate(-55 -140)"/>
  <path fill="none" stroke="#fff" stroke-linecap="round" stroke-miterlimit="10" stroke-width="16" d="M137 211h220M178 249h122M332 249h149M179 287h193M179 322h55M266 322h150M138 359h78M137 418h122M179 453h109M234 487h131M179 520h47M257 520h149M137 555h129"/>
</svg>
