<svg xmlns="http://www.w3.org/2000/svg" viewBox="-30 30 300 300">
  <pattern width="29" height="29" patternUnits="userSpaceOnUse" id="c" viewBox="31.6 -60.2 29 29" overflow="visible">
    <g stroke="#ddd" stroke-width="2">
      <path d="M59-33L91-1"/>
      <path d="M30-33L62-1M33-36L65-4M36-38L68-6"/>
      <path d="M1-33L33-1M4-36L36-4M7-38L39-6"/>
      <path d="M59-62l32 32M56-59l32 32M53-56l32 32"/>
      <path d="M30-62l32 32M27-59l32 32M33-65l32 32M36-67l32 32M24-56l32 32"/>
      <path d="M1-62l32 32M4-65l32 32M7-67l32 32"/>
      <path d="M59-91l32 32M56-88l32 32M53-85l32 32"/>
      <path d="M30-91l32 32M27-88l32 32M24-85l32 32"/>
      <path d="M1-91l32 32"/>
    </g>
  </pattern>
  <pattern width="31.2" height="20.2" patternUnits="userSpaceOnUse" id="d" viewBox="41.5 -27.1 31.2 20.2" overflow="visible">
    <g stroke="#ddd" stroke-width=".5">
      <path d="M62 0l50-8M31 0l50-8M0 0l49-8"/>
      <path d="M62-20l50-8M63-15l50-8M64-11l49-7M65-6l49-8"/>
      <path d="M31-20l50-8M32-15l49-8M33-11l49-7M34-6l49-8"/>
      <path d="M0-20l49-8M1-15l49-8M2-11l49-7M2-6l50-8"/>
      <path d="M65-26l49-8M34-26l49-8M2-26l50-8"/>
    </g>
  </pattern>
  <linearGradient id="a" gradientUnits="userSpaceOnUse" x1="256.9" y1="84.8" x2="145.4" y2="196.3">
    <stop offset="0" stop-color="#ccc" stop-opacity=".5"/>
    <stop offset="1" stop-color="#ccc" stop-opacity="0"/>
  </linearGradient>
  <path d="M219 57c-40-10-71 35-50 86s-18 73 13 87 81-53 72-90 7-73-35-83z" fill="url(#a)"/>
  <linearGradient id="b" gradientUnits="userSpaceOnUse" x1="101.1" y1="163.1" x2="63.7" y2="200.5">
    <stop offset="0" stop-color="#ccc" stop-opacity=".5"/>
    <stop offset="1" stop-color="#ccc" stop-opacity="0"/>
  </linearGradient>
  <path d="M89 151c-20-21-54 38-18 54s57-13 18-54z" fill="url(#b)"/>
  <circle cx="96" cy="72" r="16.7" fill="url(#c)"/>
  <path d="M209 201s2-31 33-38 30 30 15 39c-16 9-16-8-48-1z" fill="url(#d)"/>
</svg>