<svg xmlns="http://www.w3.org/2000/svg" viewBox="0 0 300 300">
  <pattern width="29" height="29" patternUnits="userSpaceOnUse" id="d" viewBox="31.6 -60.2 29 29" overflow="visible">
    <g stroke="#ddd" stroke-width="2">
      <path d="M59-33L91-1"/>
      <path d="M30-33L62-1M33-36L65-4M36-38L68-6"/>
      <path d="M1-33L33-1M4-36L36-4M7-38L39-6"/>
      <path d="M59-62l32 32M56-59l32 32M53-56l32 32"/>
      <path d="M30-62l32 32M27-59l32 32M33-65l32 32M36-67l32 32M24-56l32 32"/>
      <path d="M1-62l32 32M4-65l32 32M7-67l32 32"/>
      <path d="M59-91l32 32M56-88l32 32M53-85l32 32"/>
      <path d="M30-91l32 32M27-88l32 32M24-85l32 32"/>
      <path d="M1-91l32 32"/>
    </g>
  </pattern>
  <pattern width="31.2" height="20.2" patternUnits="userSpaceOnUse" id="c" viewBox="41.5 -27.1 31.2 20.2" overflow="visible">
    <g stroke="#ddd" stroke-width=".5">
      <path d="M62 0l50-8M31 0l50-8M0 0l49-8"/>
      <path d="M62-20l50-8M63-15l50-8M64-11l49-7M65-6l49-8"/>
      <path d="M31-20l50-8M32-15l49-8M33-11l49-7M34-6l49-8"/>
      <path d="M0-20l49-8M1-15l49-8M2-11l49-7M2-6l50-8"/>
      <path d="M65-26l49-8M34-26l49-8M2-26l50-8"/>
    </g>
  </pattern>
  <linearGradient id="a" gradientUnits="userSpaceOnUse" x1="-45.1" y1="273.9" x2="123.3" y2="-17.7">
    <stop offset="0" stop-color="#cccccc" stop-opacity=".5"/>
    <stop offset="1" stop-color="#cccccc" stop-opacity="0"/>
  </linearGradient>
  <linearGradient id="b" gradientUnits="userSpaceOnUse" x1="187.8" y1="237.8" x2="240.7" y2="146.3">
    <stop offset="0" stop-color="#cccccc" stop-opacity=".5"/>
    <stop offset="1" stop-color="#cccccc" stop-opacity="0"/>
  </linearGradient>
  <path d="M0 300s9-63 35-80c35-25 72-5 85-37 15-37-25-81 8-117 31-33 26-66 26-66H0v300z" fill="url(#a)"/>
  <path d="M233 142c-27-13-44 15-46 39-3 41 1 57 15 65 11 6 14-24 44-43 10-6 29-40-13-61z" fill="url(#b)"/>
  <path d="M0 189s48 58 97 41c71-25 19-66 48-103C175 89 125 26 0 70v119z" fill="url(#c)"/>
  <path fill="url(#d)" d="M179 273l-34 16-16-34 34-16z"/>
</svg>